<?xml version="1.0" encoding="UTF-8" standalone="no"?>
<!DOCTYPE svg PUBLIC "-//W3C//DTD SVG 1.1//EN" "http://www.w3.org/Graphics/SVG/1.1/DTD/svg11.dtd">
<svg width="100%" height="100%" viewBox="0 0 14 14" version="1.1" xmlns="http://www.w3.org/2000/svg" xml:space="preserve" style="fill-rule:evenodd;clip-rule:evenodd;stroke-linejoin:round;stroke-miterlimit:2;">
    <g transform="translate(7 7) rotate(-45) translate(-7 -7)">
        <path d="M1.2,7 A3.1,3.1 0 0 1 7.4,7 A3.1,3.1 0 0 1 1.2,7 Z M3.1,7 A1.2,1.2 0 0 0 5.5,7 A1.2,1.2 0 0 0 3.1,7 Z M6.6,7 A3.1,3.1 0 0 1 12.8,7 A3.1,3.1 0 0 1 6.6,7 Z M8.5,7 A1.2,1.2 0 0 0 10.9,7 A1.2,1.2 0 0 0 8.5,7 Z" style="fill:currentColor;fill-rule:nonzero;"/>
    </g>
</svg>
